<svg xmlns="http://www.w3.org/2000/svg" width="95" height="100.279" viewBox="0 0 95 100.279">
  <g id="icon-2" transform="translate(0 0)">
    <path id="Path_96" data-name="Path 96" d="M568.625,1685.963l-8.8-8.8a1.76,1.76,0,0,0-2.488,0l-1.886,1.886a40.408,40.408,0,0,0-25.019-17.262V1648.5a1.759,1.759,0,0,0-1.76-1.759H521.64a1.759,1.759,0,0,0-1.759,1.759v5.278H514.6a1.759,1.759,0,0,0-1.76,1.759v6.251a40.389,40.389,0,0,0-25.019,17.262l-1.886-1.886a1.76,1.76,0,0,0-2.488,0l-8.8,8.8a1.759,1.759,0,0,0,1.244,3h1.759v5.278a1.759,1.759,0,0,0,1.76,1.759h2.141a38.69,38.69,0,0,0,.61,14.131c-2.681,1.143-4.433,2.757-4.433,4.877v21.111c0,4.835,9.12,7.037,17.592,7.037a42.37,42.37,0,0,0,9.432-1.015c2.278,3.332,9.794,4.878,16.88,4.878s14.627-1.551,16.889-4.894a42.318,42.318,0,0,0,9.5,1.024c8.473,0,17.592-2.2,17.592-7.037V1715c0-2.137-1.786-3.757-4.506-4.9a38.657,38.657,0,0,0,.605-14.1h2.141a1.759,1.759,0,0,0,1.759-1.759v-5.278h1.76a1.759,1.759,0,0,0,1.244-3ZM523.4,1655.54v-5.278h3.518v19.352H523.4Zm0,17.593h5.277a1.759,1.759,0,0,0,1.76-1.759v-5.982a36.906,36.906,0,0,1,22.465,16.215l-4.357,4.356a1.759,1.759,0,0,0,1.244,3h1.759v4.19l-10.772,5.385a19.365,19.365,0,0,0-17.376-16.522ZM553.722,1696h4.451a35.526,35.526,0,0,1-.418,13.031,42.57,42.57,0,0,0-9.725-1.068,43.96,43.96,0,0,0-8.55.806,19.248,19.248,0,0,0,1.456-6.383Zm-32.082-10.555a15.834,15.834,0,1,1-15.833,15.834A15.834,15.834,0,0,1,521.64,1685.447Zm-8.8,43.036c-3.478-.843-5.278-2.022-5.278-2.572v-2.6a21.4,21.4,0,0,0,5.278,1.745Zm7.037,4.431v3.519c-8.093-.3-12.315-2.639-12.315-3.485v-2.6A31.291,31.291,0,0,0,519.881,1732.914Zm-3.519-75.615h3.519v12.315h-3.519Zm-3.519,8.092v4.222h-3.518v3.519h10.556v8.886a19.365,19.365,0,0,0-17.377,16.522l-10.772-5.385v-4.19h1.76a1.759,1.759,0,0,0,1.243-3l-4.358-4.358A36.9,36.9,0,0,1,512.844,1665.391Zm-10.5,37a19.211,19.211,0,0,0,1.449,6.363,44.169,44.169,0,0,0-8.466-.786,42.429,42.429,0,0,0-9.8,1.08,35.544,35.544,0,0,1-.422-13.051h4.451Zm-21.168-9.912v-5.278a1.759,1.759,0,0,0-1.142-1.648l4.66-4.66,4.55,4.549H484.7v3.519h3.519v3.519Zm.077,26.966a15.99,15.99,0,0,0,1.76.76v3.223c-1.158-.547-1.76-1.072-1.76-1.386Zm0,7.037a33.435,33.435,0,0,0,14.074,2.6v3.519c-9.234,0-14.074-2.614-14.074-3.519Zm5.278-1.868v-3.425c1.124.236,2.305.42,3.519.558v3.5A31.708,31.708,0,0,1,486.532,1724.619Zm0,14.074c-3.478-.843-5.278-2.023-5.278-2.573v-2.6a21.281,21.281,0,0,0,5.278,1.744Zm17.515,0a38.571,38.571,0,0,1-8.719.942,42.329,42.329,0,0,1-5.278-.318v-3.492a47.762,47.762,0,0,0,5.278.3,43.57,43.57,0,0,0,8.719-.839Zm0-7.037a34.342,34.342,0,0,1-5.2.788v-3.5a40.309,40.309,0,0,0,5.2-.7Zm0-7.037a38.571,38.571,0,0,1-8.719.943c-.607,0-1.191-.012-1.759-.035v-3.518c.587.021,1.175.035,1.759.035a43.572,43.572,0,0,0,8.719-.836Zm.264-7.1v0a38.14,38.14,0,0,1-8.983,1.008c-9.234,0-14.074-2.615-14.074-3.519s4.84-3.519,14.074-3.519a37.223,37.223,0,0,1,9.775,1.189c.45.128.848.274,1.249.419q.552.714,1.17,1.374A6.33,6.33,0,0,0,504.311,1717.521Zm5.014,23.851c-1.158-.547-1.76-1.071-1.76-1.387v-2.6a15.491,15.491,0,0,0,1.76.76Zm7.037,1.814a31.709,31.709,0,0,1-3.519-.628v-3.424c1.124.234,2.3.42,3.519.556Zm19.352-3.2c0,.9-4.84,3.519-14.074,3.519-.607,0-1.191-.012-1.759-.033v-3.519c.587.021,1.175.033,1.759.033a33.435,33.435,0,0,0,14.074-2.6Zm-12.315-3.552v-3.519c1.184-.042,2.363-.132,3.518-.262v3.5C525.838,1736.29,524.671,1736.385,523.4,1736.433Zm12.315-3.485c0,.551-1.8,1.729-5.278,2.572V1732.1a21.383,21.383,0,0,0,5.278-1.745Zm0-7.037c0,.9-4.84,3.518-14.074,3.518a42.376,42.376,0,0,1-5.278-.318v-3.5a47.423,47.423,0,0,0,5.278.3,33.443,33.443,0,0,0,14.074-2.6Zm-14.074-3.519c-9.234,0-14.074-2.614-14.074-3.519,0-.144.528-.982,2.857-1.852a19.225,19.225,0,0,0,22.435,0c2.329.871,2.857,1.708,2.857,1.852C535.714,1719.778,530.874,1722.392,521.64,1722.392Zm31.667,16.929a42.383,42.383,0,0,1-5.278.318,38.519,38.519,0,0,1-8.8-.96v-3.415a43.631,43.631,0,0,0,8.8.856,47.778,47.778,0,0,0,5.278-.3Zm-8.8-10.378v3.5a34.159,34.159,0,0,1-5.278-.806v-3.413A40.286,40.286,0,0,0,544.511,1728.943Zm-5.278-4.338v-3.415a43.65,43.65,0,0,0,8.8.857c.583,0,1.172-.014,1.759-.036v3.519c-.569.023-1.152.035-1.759.035A38.5,38.5,0,0,1,539.233,1724.605Zm22.87,11.509c0,.549-1.8,1.729-5.278,2.572v-3.418a21.3,21.3,0,0,0,5.278-1.744Zm0-7.037c0,.9-4.839,3.519-14.074,3.519v-3.519a33.427,33.427,0,0,0,14.074-2.6Zm-8.8-3.83v-3.5c1.214-.137,2.394-.322,3.518-.558v3.425A31.7,31.7,0,0,1,553.307,1725.247Zm8.8-3.208c0,.315-.6.84-1.759,1.386v-3.216a15.942,15.942,0,0,0,1.759-.76Zm0-7.037c0,.9-4.839,3.519-14.074,3.519a37.961,37.961,0,0,1-9.071-1.03,6.334,6.334,0,0,0-3.2-3.025c.4-.429.784-.88,1.145-1.339.429-.158.864-.317,1.351-.456a37.282,37.282,0,0,1,9.775-1.187C557.264,1711.484,562.1,1714.106,562.1,1715Zm0-26.037v3.519h-7.037v-5.278a1.759,1.759,0,0,0-1.142-1.648l4.66-4.66,4.549,4.549h-4.549v3.519Z" transform="translate(-474.14 -1646.743)" fill="#fff"/>
    <path id="Path_97" data-name="Path 97" d="M552.794,1737.713a1.759,1.759,0,0,1-1.759-1.76h-3.519a5.278,5.278,0,0,0,3.519,4.954v3.842h3.519v-3.842a5.266,5.266,0,0,0-1.76-10.232,1.759,1.759,0,1,1,1.76-1.759h3.518a5.277,5.277,0,0,0-3.518-4.954v-3.843h-3.519v3.843a5.265,5.265,0,0,0,1.759,10.232,1.759,1.759,0,1,1,0,3.519Z" transform="translate(-505.294 -1677.897)" fill="#fff"/>
    <rect id="Rectangle_15" data-name="Rectangle 15" width="3.519" height="3.519" transform="translate(35.185 52.778)" fill="#fff"/>
    <rect id="Rectangle_16" data-name="Rectangle 16" width="3.519" height="3.519" transform="translate(56.297 52.778)" fill="#fff"/>
  </g>
</svg>
