<svg id="icon-3" xmlns="http://www.w3.org/2000/svg" width="101.597" height="101.596" viewBox="0 0 101.597 101.596">
  <path id="Path_98" data-name="Path 98" d="M602.4,1948.614l-42.605-6.555a1.637,1.637,0,0,0-1.888,1.62v4.916H552.99a1.637,1.637,0,0,0-1.639,1.639v85.21a1.637,1.637,0,0,0,1.639,1.639h4.916V2042a1.638,1.638,0,0,0,1.639,1.638,1.538,1.538,0,0,0,.249-.019l42.605-6.555a1.639,1.639,0,0,0,1.39-1.619v-85.21A1.639,1.639,0,0,0,602.4,1948.614ZM557.906,2033.8h-3.278v-81.933h3.278Zm42.605.232-39.328,6.05v-94.5l39.328,6.05Z" transform="translate(-502.191 -1942.04)" fill="#fff"/>
  <path id="Path_99" data-name="Path 99" d="M578.44,2024.452a6.555,6.555,0,1,0-6.555-6.554A6.561,6.561,0,0,0,578.44,2024.452Zm0-9.832a3.277,3.277,0,1,1-3.278,3.278A3.28,3.28,0,0,1,578.44,2014.62Z" transform="translate(-509.616 -1967.099)" fill="#fff"/>
  <path id="Path_100" data-name="Path 100" d="M521.14,2050.418a1.639,1.639,0,0,0-2.882,1.065v4.916h-13.11v3.278H519.9a1.637,1.637,0,0,0,1.638-1.639v-2.125l6.036,7.042L521.535,2070v-2.125a1.637,1.637,0,0,0-1.638-1.639H505.148v3.278h13.11v4.916a1.639,1.639,0,0,0,1.07,1.537,1.67,1.67,0,0,0,.569.1,1.633,1.633,0,0,0,1.244-.573l9.832-11.47a1.638,1.638,0,0,0,0-2.132Z" transform="translate(-485.484 -1981.021)" fill="#fff"/>
  <rect id="Rectangle_17" data-name="Rectangle 17" width="3.277" height="3.277" transform="translate(13.109 75.378)" fill="#fff"/>
  <rect id="Rectangle_18" data-name="Rectangle 18" width="3.277" height="3.277" transform="translate(6.555 75.378)" fill="#fff"/>
  <rect id="Rectangle_19" data-name="Rectangle 19" width="3.277" height="3.277" transform="translate(0 75.378)" fill="#fff"/>
  <rect id="Rectangle_20" data-name="Rectangle 20" width="3.277" height="3.277" transform="translate(13.109 85.21)" fill="#fff"/>
  <rect id="Rectangle_21" data-name="Rectangle 21" width="3.277" height="3.277" transform="translate(6.555 85.21)" fill="#fff"/>
  <rect id="Rectangle_22" data-name="Rectangle 22" width="3.277" height="3.277" transform="translate(0 85.21)" fill="#fff"/>
  <path id="Path_101" data-name="Path 101" d="M521.14,2001.649a1.639,1.639,0,0,0-2.882,1.065v4.916h-13.11v3.278H519.9a1.637,1.637,0,0,0,1.638-1.639v-2.125l6.036,7.042-6.036,7.041V2019.1a1.637,1.637,0,0,0-1.638-1.639H505.148v3.278h13.11v4.916a1.639,1.639,0,0,0,1.07,1.537,1.688,1.688,0,0,0,.569.1,1.636,1.636,0,0,0,1.244-.573l9.832-11.471a1.637,1.637,0,0,0,0-2.132Z" transform="translate(-485.484 -1963.387)" fill="#fff"/>
  <rect id="Rectangle_23" data-name="Rectangle 23" width="3.277" height="3.277" transform="translate(13.109 44.243)" fill="#fff"/>
  <rect id="Rectangle_24" data-name="Rectangle 24" width="3.277" height="3.277" transform="translate(6.555 44.243)" fill="#fff"/>
  <rect id="Rectangle_25" data-name="Rectangle 25" width="3.277" height="3.277" transform="translate(0 44.243)" fill="#fff"/>
  <rect id="Rectangle_26" data-name="Rectangle 26" width="3.277" height="3.277" transform="translate(13.109 54.075)" fill="#fff"/>
  <rect id="Rectangle_27" data-name="Rectangle 27" width="3.277" height="3.277" transform="translate(6.555 54.075)" fill="#fff"/>
  <rect id="Rectangle_28" data-name="Rectangle 28" width="3.277" height="3.277" transform="translate(0 54.075)" fill="#fff"/>
  <path id="Path_102" data-name="Path 102" d="M521.14,1952.879a1.639,1.639,0,0,0-2.882,1.066v4.916h-13.11v3.278H519.9a1.637,1.637,0,0,0,1.638-1.639v-2.125l6.036,7.041-6.036,7.042v-2.125a1.637,1.637,0,0,0-1.638-1.639H505.148v3.278h13.11v4.916a1.638,1.638,0,0,0,1.07,1.537,1.668,1.668,0,0,0,.569.1,1.634,1.634,0,0,0,1.244-.574l9.832-11.47a1.637,1.637,0,0,0,0-2.132Z" transform="translate(-485.484 -1945.752)" fill="#fff"/>
  <rect id="Rectangle_29" data-name="Rectangle 29" width="3.277" height="3.277" transform="translate(13.109 13.109)" fill="#fff"/>
  <rect id="Rectangle_30" data-name="Rectangle 30" width="3.277" height="3.277" transform="translate(6.555 13.109)" fill="#fff"/>
  <rect id="Rectangle_31" data-name="Rectangle 31" width="3.277" height="3.277" transform="translate(0 13.109)" fill="#fff"/>
  <rect id="Rectangle_32" data-name="Rectangle 32" width="3.277" height="3.277" transform="translate(13.109 22.941)" fill="#fff"/>
  <rect id="Rectangle_33" data-name="Rectangle 33" width="3.277" height="3.277" transform="translate(6.555 22.941)" fill="#fff"/>
  <rect id="Rectangle_34" data-name="Rectangle 34" width="3.277" height="3.277" transform="translate(0 22.941)" fill="#fff"/>
</svg>
