<svg id="icon-1" xmlns="http://www.w3.org/2000/svg" width="95" height="94.951" viewBox="0 0 95 94.951">
  <path id="Path_103" data-name="Path 103" d="M600.642,1453.706a1.532,1.532,0,1,0,1.533,1.533A1.533,1.533,0,0,0,600.642,1453.706Z" transform="translate(-530.159 -1410.852)" fill="#fff"/>
  <path id="Path_104" data-name="Path 104" d="M559.018,1502.561h-.192a5.684,5.684,0,0,0-4.051,1.68l-.987.986a5.709,5.709,0,0,0-9.848-2.2l-7.477,8.723h-7.484a4.626,4.626,0,0,1-3.25-1.347l-1.717-1.718h3.963a6.129,6.129,0,0,0,0-12.258H516.643a19.712,19.712,0,0,0-10.576,3.064h-5.674v-1.532a1.532,1.532,0,0,0-1.533-1.532H480.474a1.532,1.532,0,0,0-1.532,1.532v24.516a1.532,1.532,0,0,0,1.532,1.533h18.387a1.532,1.532,0,0,0,1.533-1.533v-1.891l2.43,1.458a13.792,13.792,0,0,0,7.094,1.965h34.693a16.748,16.748,0,0,0,11.917-4.937l6.541-6.541a5.765,5.765,0,0,0,1.678-4.051v-.192A5.738,5.738,0,0,0,559.018,1502.561Zm-61.688,18.387H482.007V1499.5h15.323Zm48.939-15.925a2.666,2.666,0,0,1,4.69,1.736v1.3l-2.354,2.352a4.622,4.622,0,0,1-3.25,1.347H540.5Zm15.416,3.46a2.686,2.686,0,0,1-.78,1.884l-6.541,6.542a13.7,13.7,0,0,1-9.751,4.04H509.918a10.734,10.734,0,0,1-5.518-1.528l-4.007-2.4v-14.455h6.129a1.544,1.544,0,0,0,.85-.258,16.67,16.67,0,0,1,9.27-2.807h11.331a3.065,3.065,0,0,1,0,6.129H517.248a1.532,1.532,0,0,0,0,3.064h2.431l3.885,3.884a7.612,7.612,0,0,0,5.417,2.245h16.375a7.609,7.609,0,0,0,5.416-2.245l2.8-2.8,0,0,3.366-3.365a2.648,2.648,0,0,1,1.885-.781h.192a2.668,2.668,0,0,1,2.665,2.666Z" transform="translate(-478.942 -1429.062)" fill="#fff"/>
  <circle id="Ellipse_1" data-name="Ellipse 1" cx="1.532" cy="1.532" r="1.532" transform="translate(85.806 61.241)" fill="#fff"/>
  <path id="Path_105" data-name="Path 105" d="M575.864,1438.472a3.067,3.067,0,0,1,3.065,3.064,1.532,1.532,0,1,0,3.065,0,6.123,6.123,0,0,0-4.6-5.911v-1.75a1.532,1.532,0,1,0-3.064,0v1.75a6.116,6.116,0,0,0,1.532,12.041,3.064,3.064,0,1,1-3.065,3.064,1.532,1.532,0,0,0-3.065,0,6.123,6.123,0,0,0,4.6,5.912v1.75a1.532,1.532,0,1,0,3.064,0v-1.75a6.116,6.116,0,0,0-1.532-12.041,3.064,3.064,0,1,1,0-6.129Z" transform="translate(-517.639 -1401.747)" fill="#fff"/>
  <path id="Path_106" data-name="Path 106" d="M556.384,1455.239a1.532,1.532,0,1,0,1.532-1.533A1.532,1.532,0,0,0,556.384,1455.239Z" transform="translate(-511.948 -1410.852)" fill="#fff"/>
  <path id="Path_107" data-name="Path 107" d="M589.649,1399.62,577.391,1379.7a1.591,1.591,0,0,0-2.609,0l-12.258,19.919a1.532,1.532,0,0,0,1.3,2.335h4.6v8.741a19.888,19.888,0,0,0-30.645,0v-8.741h4.6a1.532,1.532,0,0,0,1.305-2.335L531.424,1379.7a1.591,1.591,0,0,0-2.609,0l-12.258,19.919a1.532,1.532,0,0,0,1.3,2.335h4.6v39.839a1.532,1.532,0,0,0,3.065,0v-41.371a1.532,1.532,0,0,0-1.532-1.532H520.6l9.515-15.464,9.515,15.464h-3.386a1.532,1.532,0,0,0-1.532,1.532v15.335a19.855,19.855,0,0,0,0,15.305s0,.009,0,.015v10.715a1.532,1.532,0,0,0,3.064,0v-5.677a19.87,19.87,0,0,0,26.855,3.514,1.533,1.533,0,0,0-1.779-2.5,16.9,16.9,0,1,1,3.975-3.975,1.535,1.535,0,0,0,.359,2.138,1.517,1.517,0,0,0,1.235.229v6.268a1.532,1.532,0,0,0,3.064,0v-10.715c0-.009,0-.015,0-.024a19.817,19.817,0,0,0,.006-15.3v-15.335a1.532,1.532,0,0,0-1.532-1.532h-3.387l9.515-15.464,9.515,15.464h-3.386a1.533,1.533,0,0,0-1.533,1.532v35.242a1.532,1.532,0,1,0,3.065,0v-33.709h4.6a1.532,1.532,0,0,0,1.305-2.335Z" transform="translate(-494.877 -1379.02)" fill="#fff"/>
</svg>
