<svg id="ksa-flag" xmlns="http://www.w3.org/2000/svg" width="48.302" height="29.543" viewBox="0 0 48.302 29.543">
  <path id="Path_65" data-name="Path 65" d="M1285.081,606.957V636.5h48.3V606.957Z" transform="translate(-1285.081 -606.957)" fill="#016836"/>
  <g id="Group_42" data-name="Group 42" transform="translate(13.987 7.694)">
    <path id="Path_66" data-name="Path 66" d="M1331.548,634.249s.048-.036.109.1.205,1.244.422,1.183c0,0,.036.109.217-.809s.567-.725.567-.725a2.11,2.11,0,0,1,.169,1.256s-.048.374.205.338.024-.99,0-1.026-.326-1.219-.06-1.292.411.109.434.857.085,1.292.3,1.219-.241-.6-.217-1.1.145-.5.145-.5.29-.1.447.567,0,.712,0,.712a2.925,2.925,0,0,0,.386.374c.133.085.374-.048.193-.435s-.495-1.014-.229-1.219.543.253.628.435.085.289-.06.235.386.936.012,1.419-.7.29-.7.29-.4-.386-.555-.266-.06,1.292-.06,1.292.133,1-.4,1.171l-.052-1.7s-.008-.193-.261-.229-.507-.1-.507-.447.024-1.014.024-1.014-.145-.362-.218.1-.1,1.231-.435,1.171S1331.5,635.408,1331.548,634.249Z" transform="translate(-1331.359 -632.929)" fill="#fcfcfc"/>
    <path id="Path_67" data-name="Path 67" d="M1333.025,632.741c-.152.025-.024.242.072.459a.757.757,0,0,1,.084.531c-.048.121.157.012.218-.193S1333.387,632.681,1333.025,632.741Z" transform="translate(-1332.341 -632.568)" fill="#fcfcfc"/>
    <path id="Path_68" data-name="Path 68" d="M1339.368,633.027c.113-.011.141.229.2.229s.036-.233.136-.233.027.216.135.216.054-.224.163-.216.157.622-.308.6S1339.254,633.038,1339.368,633.027Z" transform="translate(-1336.751 -632.767)" fill="#fcfcfc"/>
    <path id="Path_69" data-name="Path 69" d="M1361.521,642.37c.114-.011.141.229.2.229s.036-.234.135-.234.027.216.136.216.054-.224.163-.216.157.622-.308.6S1361.407,642.38,1361.521,642.37Z" transform="translate(-1352.147 -639.26)" fill="#fcfcfc"/>
    <path id="Path_70" data-name="Path 70" d="M1374.449,638.68c.114-.01.141.229.2.229s.036-.233.136-.233.027.216.136.216.054-.224.163-.216.157.622-.308.6S1374.335,638.691,1374.449,638.68Z" transform="translate(-1361.133 -636.696)" fill="#fcfcfc"/>
    <path id="Path_71" data-name="Path 71" d="M1335.315,637.483a1.252,1.252,0,0,0-.272,1.222c.145.851,1.186.715,1.186.715a1.809,1.809,0,0,0,1.222-.965c.407-.828.163-.955.4-.973s-.091.987-.118,1.05-.634,1.214-1.539,1.168-1.038-.181-1.185-.607-.029-.842-.156-.833-.263.67-.227.951a1.185,1.185,0,0,0,1.34,1.159,2.557,2.557,0,0,0,2.246-1.549,3.077,3.077,0,0,0,.054-1.449s-.027-.109.226.045.353-.172.661-.217.217.127.426.1a.542.542,0,0,0,.507-.562c.009-.407,0-.607,0-.607a.214.214,0,0,0-.226.045c-.082.1-.009.426-.136.453s-.208-.326-.362-.344-.371.481-.579.508-.054-.445-.254-.472c-.088-.012-.208.245-.254.127s-.272-2.019-.272-2.019h.353l-.389-.941s-.127-.344-.344-.262-.217.525-.19.606.353,2.318.353,2.318.118.525-.018.589-.307-.371-.58-.4-.9.172-.887.715.263.716.435.734.569-.335.619-.272-.32,1.1-1.081,1.177-.842-.48-.86-.806S1335.43,637.378,1335.315,637.483Z" transform="translate(-1333.499 -632.9)" fill="#fcfcfc"/>
    <path id="Path_72" data-name="Path 72" d="M1347.258,635.026h.661l1.042-1.032-.326-.243s-.226-.155-.136-.236.254.181.254.181a.125.125,0,0,0,.181-.107c.036-.174-.009-.4-.353-.376-.326.02-.384.273-.22.539.009.015.019.029.029.044.2.281.109.127.109.127Z" transform="translate(-1342.282 -632.897)" fill="#fcfcfc"/>
    <path id="Path_73" data-name="Path 73" d="M1350.382,638.68c.092-.046-.072.353,0,.425s.361-.1.421-.045-.254.48-.441.435a.387.387,0,0,1-.323-.406C1350.074,638.9,1350.129,638.807,1350.382,638.68Z" transform="translate(-1344.211 -636.696)" fill="#fcfcfc"/>
    <path id="Path_74" data-name="Path 74" d="M1353.395,632.964c.024-.078.217.068.262.442s.109.926.308.908.344-.969.443-1.141.281-.4.435-.389.263.76.245,1.123a.536.536,0,0,0,.453.6c.2-.009.489-.48.444-.86s-.235-.806-.163-.987.118-.462.272-.471.38.425.353.815-.127,1.485.39,1.431.045-.869-.154-1.349a.508.508,0,0,1,.308-.715.907.907,0,0,1,.607.616c.109.389-.045.172-.172.172s-.09.1-.009.38.083.507.218.58.326.138.407.051.29-.167.226,0-.163.61-.353.647-.217-.172-.154-.29-.127-.091-.217.054-.19.5-.625.507-.4-.471-.661-.443-.561.507-.878.525a.642.642,0,0,1-.661-.453c-.018-.226.082-.833-.045-.878s-.245,1.114-.616,1.1-.7-.5-.734-.824A5.1,5.1,0,0,1,1353.395,632.964Z" transform="translate(-1346.49 -632.185)" fill="#fcfcfc"/>
    <path id="Path_75" data-name="Path 75" d="M1355.158,632.184c.115-.019-.127.254-.163.326s-.109.109-.054.213.186,0,.233.077-.1.273-.252.237a.345.345,0,0,1-.225-.424A.838.838,0,0,1,1355.158,632.184Z" transform="translate(-1347.438 -632.183)" fill="#fcfcfc"/>
    <path id="Path_76" data-name="Path 76" d="M1359.623,632.732c-.036.152-.081.487,0,.55s.227-.109.29-.353.172-.534,0-.571S1359.623,632.732,1359.623,632.732Z" transform="translate(-1350.844 -632.304)" fill="#fcfcfc"/>
    <path id="Path_77" data-name="Path 77" d="M1348.914,647.743c-.116,0,.036.281.109.407s.027.543.073.552a.4.4,0,0,0,.226-.371C1349.312,648.123,1349.24,647.752,1348.914,647.743Z" transform="translate(-1343.404 -642.997)" fill="#fcfcfc"/>
    <path id="Path_78" data-name="Path 78" d="M1352.806,643.475c-.045-.036-1.983,0-1.983,0s-.208-.018-.2-.072.661-.163.887-.308.561-.435.552-.724-.163-.842-.607-.851-.743.405-.716,1.114a4.135,4.135,0,0,0-.987.308c-.181.145-.57.335-.607.534s-.118.109-.118.109-.1-.788-.145-.987a4.671,4.671,0,0,0-.235-.67c-.054-.118-.172-.526-.362-.408s-.217.489-.027.978a3.444,3.444,0,0,1,.289,1.449,1.92,1.92,0,0,1-.524.906c-.245.226-.6.571-.8.579s-.6-.027-.534-.281.679-.579.833-.787a1.757,1.757,0,0,0,.435-.96,1.73,1.73,0,0,0-.226-.85c-.055-.046,0-.119.127-.055s.181.027.1-.172-.344-.688-.625-.534a.565.565,0,0,0-.208.7c.073.208.444.4.426.7a1.414,1.414,0,0,1-.661.951c-.407.29-.326.227-.326.227s.145-.535.009-.525a3.214,3.214,0,0,0-.353.688,7.89,7.89,0,0,1-1.295.906s-.679.471-.643.561a3.548,3.548,0,0,0,1.268-.317c.172-.109.526-.29.58-.245s.317.734.805.7a2.962,2.962,0,0,0,1.494-.946c.154-.245.281-.39.371-.372s.536.561.716.7,1.448.489,1.521.217-.362-.471-.435-.534-.326-.109-.272-.263.353-.407.951-.425a2.882,2.882,0,0,0,1.1-.218c.109-.054.118-.317.226-.453S1352.852,643.511,1352.806,643.475Zm-1.612-1.285c.172,0,.335.235.29.317s-.226-.073-.29-.136S1351.1,642.189,1351.195,642.189Zm-.752,1.965c-.244.235-.462.253-.534.407s.091.5-.1.48-.282-.2-.445-.389a.87.87,0,0,1-.163-.715c.063-.163.235-.028.58,0S1350.548,644.053,1350.443,644.154Z" transform="translate(-1340.216 -638.657)" fill="#fcfcfc"/>
    <path id="Path_79" data-name="Path 79" d="M1332.486,644.687a3.643,3.643,0,0,0-.761.788c-.027.127.163.045.38-.045s1.078-.516,1.078-.516.326-.091.3-.226S1333.092,644.3,1332.486,644.687Z" transform="translate(-1331.484 -640.729)" fill="#fcfcfc"/>
    <path id="Path_80" data-name="Path 80" d="M1331.283,650.562c.048-.01.009.335,0,.552s-.077.616.011.67.342-.29.405-.2.027.812-.326.777a.56.56,0,0,1-.407-.75C1331.047,651.278,1331.111,650.6,1331.283,650.562Z" transform="translate(-1330.943 -644.957)" fill="#fcfcfc"/>
    <path id="Path_81" data-name="Path 81" d="M1367.533,653.217c-.02.1.262.009.326.091s-.1.245,0,.335.444-.055.579-.082.417-.109.38-.217-.208-.136-.3-.127-.163.172-.272.163-.2-.048-.145-.165.063-.27-.009-.333S1367.569,653.027,1367.533,653.217Z" transform="translate(-1356.373 -646.561)" fill="#fcfcfc"/>
    <path id="Path_82" data-name="Path 82" d="M1368.462,633.165l-.507-.471s-.3-.4-.426-.181a1.009,1.009,0,0,0,.136.951c.208.29,1.3,1.745,1.3,1.745v3.815a.693.693,0,0,0,.534-.534,13.178,13.178,0,0,0,0-2.42l1.177,2.139.063-.942-1.331-2.282-.163-.987s-.009-.135.073-.14.145.123.145,0a9.659,9.659,0,0,0-.534-1.119s-.118-.317-.262-.226S1368.611,633.3,1368.462,633.165Z" transform="translate(-1356.324 -632.367)" fill="#fcfcfc"/>
    <path id="Path_83" data-name="Path 83" d="M1370.646,635.776s-.181.036-.072.154.226.317.217.172S1370.694,635.76,1370.646,635.776Z" transform="translate(-1358.463 -634.68)" fill="#fcfcfc"/>
    <path id="Path_84" data-name="Path 84" d="M1374.423,633.231c-.116.036-.09.253,0,.344s.3.3.272.48-.136.281-.054.34.226-.2.254-.358a.946.946,0,0,0-.082-.61C1374.7,633.295,1374.568,633.186,1374.423,633.231Z" transform="translate(-1361.108 -632.904)" fill="#fcfcfc"/>
    <path id="Path_85" data-name="Path 85" d="M1375.66,635.63" transform="translate(-1362.022 -634.579)" fill="#fcfcfc"/>
    <path id="Path_86" data-name="Path 86" d="M1374.807,632.978c.051-.075.525.842.534.9s.127.163,0,.244a.33.33,0,0,0-.19.29c0,.127.235,1.811.253,2.128s-.018,1.784,0,2.046a2.616,2.616,0,0,1-.688,1.261c-.317.324-1.05.677-1.3.179,0,0-.109-.045.281-.235a10.1,10.1,0,0,0,1.358-1.1l-.136-2.078s-.254-2.233-.263-2.373A3.9,3.9,0,0,1,1374.807,632.978Z" transform="translate(-1360.45 -632.732)" fill="#fcfcfc"/>
    <path id="Path_87" data-name="Path 87" d="M1381.13,634.31a.329.329,0,0,1,.183-.294c.125-.084,0-.19-.006-.244s-.505-.96-.555-.884a3.912,3.912,0,0,0-.124,1.257c.006.064.213,1.113.332,2.227.138,1.3.19,2.691.19,2.691a.663.663,0,0,0,.4-.561c.055-.444-.335-3.631-.335-3.631Z" transform="translate(-1365.472 -632.669)" fill="#fcfcfc"/>
    <path id="Path_88" data-name="Path 88" d="M1384.45,639.18c-.114.087-.046.308.136.58a1.508,1.508,0,0,0,.57.48,2.415,2.415,0,0,0,.036-.61c0-.205.073-.3.1-.264s.208.059.226,0a1.355,1.355,0,0,0-.127-.4c-.018-.027-.2-.244-.29-.109s-.054.4-.172.512S1384.64,639.035,1384.45,639.18Z" transform="translate(-1368.092 -636.789)" fill="#fcfcfc"/>
    <path id="Path_89" data-name="Path 89" d="M1386.256,643.465s-.969.7-.978.725-.118.154-.109.271.145.253.217.154.951-.728.951-.728a.39.39,0,0,0,.073-.17C1386.41,643.646,1386.363,643.388,1386.256,643.465Z" transform="translate(-1368.631 -640.014)" fill="#fcfcfc"/>
    <path id="Path_90" data-name="Path 90" d="M1388.074,645.991c-.109.073-.087.372-.052.48a1.346,1.346,0,0,1,.125.371,1.571,1.571,0,0,0,0,.417c.027.009.262-.009.262-.634S1388.074,645.991,1388.074,645.991Z" transform="translate(-1370.594 -641.78)" fill="#fcfcfc"/>
    <path id="Path_91" data-name="Path 91" d="M1394.743,635.157c-.107.015-.154.279,0,.542s.217.337.163.531a.542.542,0,0,0-.018.3s.271-.126.217-.686S1394.861,635.14,1394.743,635.157Z" transform="translate(-1375.216 -634.249)" fill="#fcfcfc"/>
    <path id="Path_92" data-name="Path 92" d="M1380.941,638.148c.045,0,.063.759.1.913s.073.435.335.435.543-.679.6-.815.245-.67.426-.67.552.7.914.706.272-.534.281-.815-.145-2.716-.145-2.716l-1.1-1.467a3.727,3.727,0,0,1,.018-.838,5.081,5.081,0,0,1,.779.693c-.009.009.045.063-.082.1s-.045.1-.027.136a1.6,1.6,0,0,0,.208.181l-.036-.906s-.009-.21.109-.2a5.9,5.9,0,0,1,.724,1.071s-.018.183-.1.147-.154-.081-.172-.054.063.788.063.788l.634.9-.389-2.572s.027-.264.254-.277.371.467.462.766.181.443.118.52-.154-.031-.172.05.308,2.445.308,2.445l.888,1.295-.046.878-.715-1.1-.009.661a3.411,3.411,0,0,1-.443.589,11.931,11.931,0,0,1-.118-2.182,3.721,3.721,0,0,0-.507-.693c-.045.005,0,2.044,0,2.044l-.018.461s-.2.806-.679.806-.67-.634-.96-.6-.379,1.438-.819,1.389a1.149,1.149,0,0,1-.856-.773C1380.688,639.161,1380.67,638.14,1380.941,638.148Z" transform="translate(-1365.535 -632.667)" fill="#fcfcfc"/>
    <path id="Path_93" data-name="Path 93" d="M1391.956,653.77c-.063.009-.308.027-.308.127s.226.19.235.254-.308.35-.235.442.317-.044.417-.116.308-.081.29-.181-.29-.082-.29-.163.127-.226.118-.29S1391.956,653.77,1391.956,653.77Z" transform="translate(-1373.126 -647.186)" fill="#fcfcfc"/>
    <path id="Path_94" data-name="Path 94" d="M1394.923,638.872a3.056,3.056,0,0,1-.58.761c-.2.1-.851.377-.806.505a1.363,1.363,0,0,0,1.258-.089,2.035,2.035,0,0,0,.562-1.069s.027-1.72,0-2.11-.217-2.236-.29-2.5.036-.281.072-.3.241.009.229-.091a7.722,7.722,0,0,0-.528-.842s-.109-.172-.163-.167-.181.222-.163.566.39,3.721.39,3.721A11.4,11.4,0,0,1,1394.923,638.872Z" transform="translate(-1374.445 -632.732)" fill="#fcfcfc"/>
    <path id="Path_95" data-name="Path 95" d="M1355.812,674.194c-.127-.145-.507,0-.507,0h-1.575s.036-.108.09-.235-.018-.181-.163-.235-.054-.181-.181-.181-.181.181-.2.29.2.362.2.362l-12.749-.145c.905.8,1.485.742,1.485.742h11.173a2.973,2.973,0,0,0-.054.4c0,.127.145.435.344.436s.127-.255.127-.255h1.539s-.036.217.308.253.507-.544.507-.706A1.774,1.774,0,0,0,1355.812,674.194Zm-.712.936c-.054-.006-.205.012-.271,0s-.054-.127-.248-.142a.175.175,0,0,0-.211.142h-.465c-.248,0-.32-.291-.211-.284.181.012,1.473,0,1.473,0s.175.048.181.144S1355.154,675.136,1355.1,675.13Z" transform="translate(-1337.743 -660.928)" fill="#fcfcfc"/>
  </g>
</svg>
