<svg id="uk-flag" xmlns="http://www.w3.org/2000/svg" width="37.712" height="23.68" viewBox="0 0 37.712 23.68">
  <g id="Group_19" data-name="Group 19" transform="translate(0.03 0.055)">
    <g id="Group_18" data-name="Group 18">
      <path id="Path_59" data-name="Path 59" d="M256.729,834.411v23.605l0,.006H219.068V834.411Z" transform="translate(-219.068 -834.411)" fill="#2e4593"/>
    </g>
  </g>
  <g id="Group_24" data-name="Group 24" transform="translate(0.03)">
    <g id="Group_21" data-name="Group 21" transform="translate(0 0.007)">
      <g id="Group_20" data-name="Group 20">
        <path id="Path_60" data-name="Path 60" d="M256.729,855.453v2.456l0,.006h-3.917l-11.56-7.248-1.16-.724-1.364-.859-.456-.289-1.389-.867-.517-.325-.435-.272-.875-.545-.281-.179-.427-.264-4.1-2.58-1.845-1.157-9.326-5.843V834.3l.033-.048.073.048h3.814l11.782,7.382,1.155.728.31.191,1.846,1.157.185.118.709.443,1.111.7.19.121.97.6.943.593,2.535,1.585,1.846,1.156Z" transform="translate(-219.068 -834.255)" fill="#fcf5ff"/>
      </g>
    </g>
    <g id="Group_23" data-name="Group 23">
      <g id="Group_22" data-name="Group 22">
        <path id="Path_61" data-name="Path 61" d="M256.734,857.826l.009.085-2.521-.013-12.973-8.134-1.107-.7-.053-.029-1.111-.7-.678-.427-1.231-.772-1.142-.712-.163-.1-.712-.45-.281-.178-3.115-1.952-1.842-1.157-10.746-6.738v-1.619l.033.007.073.048,13.248,8.3,1.842,1.157.506.316,1.155.729.435.27.706.445,1.308.819,1.713,1.073.19.121.63.391.34.217,1.5.94Z" transform="translate(-219.068 -834.232)" fill="#f42525"/>
      </g>
    </g>
  </g>
  <g id="Group_29" data-name="Group 29" transform="translate(0.03 0.055)">
    <g id="Group_26" data-name="Group 26">
      <g id="Group_25" data-name="Group 25">
        <path id="Path_62" data-name="Path 62" d="M256.729,834.875v2.458l-8.588,5.379-1.843,1.157-4.107,2.58-.943.586-.97.609-.19.12-.433.271-.678.427-.709.44-.459.289-1.883,1.184-1.155.726-11.047,6.922h-4.655v-2l10.9-6.832,1.842-1.156,2.538-1.585.427-.27.281-.18.875-.547.435-.268,1.906-1.2.185-.117,1.635-1.026.209-.131.951-.595,12.3-7.707h2.888Z" transform="translate(-219.068 -834.411)" fill="#fcf5ff"/>
      </g>
    </g>
    <g id="Group_28" data-name="Group 28">
      <g id="Group_27" data-name="Group 27">
        <path id="Path_63" data-name="Path 63" d="M256.634,835l-12.309,7.715-1.846,1.157-1.23.774-.97.608-.19.118-1.713,1.079-1.308.813-.706.447-.435.269-.086.056-1.069.674-.779.483-14.074,8.832h-.849v-1.1l12.313-7.727,1.846-1.156,1.544-.966.281-.176.712-.443.163-.107,1.142-.712,1.909-1.2.891-.561.221-.138,1.16-.727.466-.292,13.244-8.3h1.77l0,.516Z" transform="translate(-219.068 -834.411)" fill="#f42525"/>
      </g>
    </g>
  </g>
  <g id="Group_31" data-name="Group 31" transform="translate(0 8.357)">
    <g id="Group_30" data-name="Group 30">
      <rect id="Rectangle_11" data-name="Rectangle 11" width="37.712" height="6.478" fill="#fff"/>
    </g>
  </g>
  <g id="Group_33" data-name="Group 33" transform="translate(0 9.514)">
    <g id="Group_32" data-name="Group 32">
      <rect id="Rectangle_12" data-name="Rectangle 12" width="37.712" height="4.164" fill="#f42525"/>
    </g>
  </g>
  <g id="Group_35" data-name="Group 35" transform="translate(16.888 0.055)">
    <g id="Group_34" data-name="Group 34">
      <rect id="Rectangle_13" data-name="Rectangle 13" width="4.163" height="23.611" fill="#cd002a"/>
    </g>
  </g>
  <g id="Group_40" data-name="Group 40" transform="translate(15.721 0.055)">
    <g id="Group_37" data-name="Group 37">
      <g id="Group_36" data-name="Group 36">
        <path id="Path_64" data-name="Path 64" d="M275.229,849.19h1.16v8.832h-6.481V849.19h1.156v-6.478h-1.156v-8.3h6.481v8.3h-1.16Z" transform="translate(-269.909 -834.411)" fill="#fff"/>
      </g>
    </g>
    <g id="Group_39" data-name="Group 39" transform="translate(1.136)">
      <g id="Group_38" data-name="Group 38">
        <rect id="Rectangle_14" data-name="Rectangle 14" width="4.209" height="23.611" fill="#f42525"/>
      </g>
    </g>
  </g>
</svg>
