<svg xmlns="http://www.w3.org/2000/svg" width="37.616" height="22.948" viewBox="0 0 37.616 22.948">
  <g id="us-flag" transform="translate(0.454)">
    <g id="Group_15" data-name="Group 15">
      <rect id="Rectangle_2" data-name="Rectangle 2" width="37.153" height="22.948" transform="translate(0.008)" fill="#fff"/>
      <rect id="Rectangle_3" data-name="Rectangle 3" width="17.424" height="12.316" transform="translate(0.008)" fill="#383572"/>
      <path id="Path_9" data-name="Path 9" d="M224.687,399.909l.163.5h.527l-.426.31.163.5-.426-.31-.426.31.163-.5-.426-.31h.527Z" transform="translate(-223.255 -399.426)" fill="#fff"/>
      <path id="Path_10" data-name="Path 10" d="M234.412,399.909l.163.5h.527l-.426.31.163.5-.426-.31-.426.31.163-.5-.426-.31h.527Z" transform="translate(-230.014 -399.426)" fill="#fff"/>
      <path id="Path_11" data-name="Path 11" d="M243.872,399.909l.163.5h.527l-.426.31.163.5-.426-.31-.426.31.163-.5-.426-.31h.527Z" transform="translate(-236.588 -399.426)" fill="#fff"/>
      <path id="Path_12" data-name="Path 12" d="M253.331,399.909l.163.5h.527l-.426.31.163.5-.426-.31-.426.31.163-.5-.426-.31h.527Z" transform="translate(-243.163 -399.426)" fill="#fff"/>
      <path id="Path_13" data-name="Path 13" d="M262.791,399.909l.163.5h.527l-.426.31.163.5-.426-.31-.426.31.163-.5-.426-.31h.527Z" transform="translate(-249.737 -399.426)" fill="#fff"/>
      <path id="Path_14" data-name="Path 14" d="M267.753,404.21l.163.5h.527l-.426.31.163.5-.426-.31-.426.31.163-.5-.426-.31h.527Z" transform="translate(-253.186 -402.416)" fill="#fff"/>
      <path id="Path_15" data-name="Path 15" d="M258.268,404.21l.163.5h.527l-.426.31.163.5-.426-.31-.426.31.163-.5-.426-.31h.527Z" transform="translate(-246.594 -402.416)" fill="#fff"/>
      <path id="Path_16" data-name="Path 16" d="M248.783,404.21l.163.5h.527l-.426.31.163.5-.426-.31-.426.31.163-.5-.426-.31h.527Z" transform="translate(-240.001 -402.416)" fill="#fff"/>
      <path id="Path_17" data-name="Path 17" d="M239.031,404.21l.163.5h.527l-.426.31.163.5-.426-.31-.426.31.163-.5-.426-.31h.527Z" transform="translate(-233.224 -402.416)" fill="#fff"/>
      <path id="Path_18" data-name="Path 18" d="M229.546,404.21l.163.5h.527l-.426.31.163.5-.426-.31-.426.31.163-.5-.426-.31h.527Z" transform="translate(-226.632 -402.416)" fill="#fff"/>
      <path id="Path_19" data-name="Path 19" d="M272.516,399.909l.163.5h.527l-.426.31.163.5-.426-.31-.426.31.163-.5-.426-.31h.527Z" transform="translate(-256.496 -399.426)" fill="#fff"/>
      <path id="Path_20" data-name="Path 20" d="M224.687,407.884l.163.5h.527l-.426.31.163.5-.426-.31-.426.31.163-.5-.426-.31h.527Z" transform="translate(-223.255 -404.969)" fill="#fff"/>
      <path id="Path_21" data-name="Path 21" d="M234.412,407.884l.163.5h.527l-.426.31.163.5-.426-.31-.426.31.163-.5-.426-.31h.527Z" transform="translate(-230.014 -404.969)" fill="#fff"/>
      <path id="Path_22" data-name="Path 22" d="M243.872,407.884l.163.5h.527l-.426.31.163.5-.426-.31-.426.31.163-.5-.426-.31h.527Z" transform="translate(-236.588 -404.969)" fill="#fff"/>
      <path id="Path_23" data-name="Path 23" d="M253.331,407.884l.163.5h.527l-.426.31.163.5-.426-.31-.426.31.163-.5-.426-.31h.527Z" transform="translate(-243.163 -404.969)" fill="#fff"/>
      <path id="Path_24" data-name="Path 24" d="M262.791,407.884l.163.5h.527l-.426.31.163.5-.426-.31-.426.31.163-.5-.426-.31h.527Z" transform="translate(-249.737 -404.969)" fill="#fff"/>
      <path id="Path_25" data-name="Path 25" d="M267.753,412.185l.163.5h.527l-.426.31.163.5-.426-.31-.426.31.163-.5-.426-.31h.527Z" transform="translate(-253.186 -407.958)" fill="#fff"/>
      <path id="Path_26" data-name="Path 26" d="M258.268,412.185l.163.5h.527l-.426.31.163.5-.426-.31-.426.31L258,413l-.426-.31h.527Z" transform="translate(-246.594 -407.958)" fill="#fff"/>
      <path id="Path_27" data-name="Path 27" d="M248.783,412.185l.163.5h.527l-.426.31.163.5-.426-.31-.426.31.163-.5-.426-.31h.527Z" transform="translate(-240.001 -407.958)" fill="#fff"/>
      <path id="Path_28" data-name="Path 28" d="M239.031,412.185l.163.5h.527l-.426.31.163.5-.426-.31-.426.31.163-.5-.426-.31h.527Z" transform="translate(-233.224 -407.958)" fill="#fff"/>
      <path id="Path_29" data-name="Path 29" d="M229.546,412.185l.163.5h.527l-.426.31.163.5-.426-.31-.426.31.163-.5-.426-.31h.527Z" transform="translate(-226.632 -407.958)" fill="#fff"/>
      <path id="Path_30" data-name="Path 30" d="M272.516,407.884l.163.5h.527l-.426.31.163.5-.426-.31-.426.31.163-.5-.426-.31h.527Z" transform="translate(-256.496 -404.969)" fill="#fff"/>
      <path id="Path_31" data-name="Path 31" d="M224.687,415.859l.163.5h.527l-.426.31.163.5-.426-.31-.426.31.163-.5-.426-.31h.527Z" transform="translate(-223.255 -410.512)" fill="#fff"/>
      <path id="Path_32" data-name="Path 32" d="M234.412,415.859l.163.5h.527l-.426.31.163.5-.426-.31-.426.31.163-.5-.426-.31h.527Z" transform="translate(-230.014 -410.512)" fill="#fff"/>
      <path id="Path_33" data-name="Path 33" d="M243.872,415.859l.163.5h.527l-.426.31.163.5-.426-.31-.426.31.163-.5-.426-.31h.527Z" transform="translate(-236.588 -410.512)" fill="#fff"/>
      <path id="Path_34" data-name="Path 34" d="M253.331,415.859l.163.5h.527l-.426.31.163.5-.426-.31-.426.31.163-.5-.426-.31h.527Z" transform="translate(-243.163 -410.512)" fill="#fff"/>
      <path id="Path_35" data-name="Path 35" d="M262.791,415.859l.163.5h.527l-.426.31.163.5-.426-.31-.426.31.163-.5-.426-.31h.527Z" transform="translate(-249.737 -410.512)" fill="#fff"/>
      <path id="Path_36" data-name="Path 36" d="M267.753,420.161l.163.5h.527l-.426.31.163.5-.426-.31-.426.31.163-.5-.426-.31h.527Z" transform="translate(-253.186 -413.501)" fill="#fff"/>
      <path id="Path_37" data-name="Path 37" d="M258.268,420.161l.163.5h.527l-.426.31.163.5-.426-.31-.426.31.163-.5-.426-.31h.527Z" transform="translate(-246.594 -413.501)" fill="#fff"/>
      <path id="Path_38" data-name="Path 38" d="M248.783,420.161l.163.5h.527l-.426.31.163.5-.426-.31-.426.31.163-.5-.426-.31h.527Z" transform="translate(-240.001 -413.501)" fill="#fff"/>
      <path id="Path_39" data-name="Path 39" d="M239.031,420.161l.163.5h.527l-.426.31.163.5-.426-.31-.426.31.163-.5-.426-.31h.527Z" transform="translate(-233.224 -413.501)" fill="#fff"/>
      <path id="Path_40" data-name="Path 40" d="M229.546,420.161l.163.5h.527l-.426.31.163.5-.426-.31-.426.31.163-.5-.426-.31h.527Z" transform="translate(-226.632 -413.501)" fill="#fff"/>
      <path id="Path_41" data-name="Path 41" d="M272.516,415.859l.163.5h.527l-.426.31.163.5-.426-.31-.426.31.163-.5-.426-.31h.527Z" transform="translate(-256.496 -410.512)" fill="#fff"/>
      <path id="Path_42" data-name="Path 42" d="M224.687,423.834l.163.5h.527l-.426.31.163.5-.426-.31-.426.31.163-.5-.426-.31h.527Z" transform="translate(-223.255 -416.055)" fill="#fff"/>
      <path id="Path_43" data-name="Path 43" d="M234.412,423.834l.163.5h.527l-.426.31.163.5-.426-.31-.426.31.163-.5-.426-.31h.527Z" transform="translate(-230.014 -416.055)" fill="#fff"/>
      <path id="Path_44" data-name="Path 44" d="M243.872,423.834l.163.5h.527l-.426.31.163.5-.426-.31-.426.31.163-.5-.426-.31h.527Z" transform="translate(-236.588 -416.055)" fill="#fff"/>
      <path id="Path_45" data-name="Path 45" d="M253.331,423.834l.163.5h.527l-.426.31.163.5-.426-.31-.426.31.163-.5-.426-.31h.527Z" transform="translate(-243.163 -416.055)" fill="#fff"/>
      <path id="Path_46" data-name="Path 46" d="M262.791,423.834l.163.5h.527l-.426.31.163.5-.426-.31-.426.31.163-.5-.426-.31h.527Z" transform="translate(-249.737 -416.055)" fill="#fff"/>
      <path id="Path_47" data-name="Path 47" d="M267.753,428.136l.163.5h.527l-.426.31.163.5-.426-.31-.426.31.163-.5-.426-.31h.527Z" transform="translate(-253.186 -419.044)" fill="#fff"/>
      <path id="Path_48" data-name="Path 48" d="M258.268,428.136l.163.5h.527l-.426.31.163.5-.426-.31-.426.31.163-.5-.426-.31h.527Z" transform="translate(-246.594 -419.044)" fill="#fff"/>
      <path id="Path_49" data-name="Path 49" d="M248.783,428.136l.163.5h.527l-.426.31.163.5-.426-.31-.426.31.163-.5-.426-.31h.527Z" transform="translate(-240.001 -419.044)" fill="#fff"/>
      <path id="Path_50" data-name="Path 50" d="M239.031,428.136l.163.5h.527l-.426.31.163.5-.426-.31-.426.31.163-.5-.426-.31h.527Z" transform="translate(-233.224 -419.044)" fill="#fff"/>
      <path id="Path_51" data-name="Path 51" d="M229.546,428.136l.163.5h.527l-.426.31.163.5-.426-.31-.426.31.163-.5-.426-.31h.527Z" transform="translate(-226.632 -419.044)" fill="#fff"/>
      <path id="Path_52" data-name="Path 52" d="M272.516,423.834l.163.5h.527l-.426.31.163.5-.426-.31-.426.31.163-.5-.426-.31h.527Z" transform="translate(-256.496 -416.055)" fill="#fff"/>
      <path id="Path_53" data-name="Path 53" d="M224.687,431.81l.163.5h.527l-.426.31.163.5-.426-.31-.426.31.163-.5-.426-.31h.527Z" transform="translate(-223.255 -421.598)" fill="#fff"/>
      <path id="Path_54" data-name="Path 54" d="M234.412,431.81l.163.5h.527l-.426.31.163.5-.426-.31-.426.31.163-.5-.426-.31h.527Z" transform="translate(-230.014 -421.598)" fill="#fff"/>
      <path id="Path_55" data-name="Path 55" d="M243.872,431.81l.163.5h.527l-.426.31.163.5-.426-.31-.426.31.163-.5-.426-.31h.527Z" transform="translate(-236.588 -421.598)" fill="#fff"/>
      <path id="Path_56" data-name="Path 56" d="M253.331,431.81l.163.5h.527l-.426.31.163.5-.426-.31-.426.31.163-.5-.426-.31h.527Z" transform="translate(-243.163 -421.598)" fill="#fff"/>
      <path id="Path_57" data-name="Path 57" d="M262.791,431.81l.163.5h.527l-.426.31.163.5-.426-.31-.426.31.163-.5-.426-.31h.527Z" transform="translate(-249.737 -421.598)" fill="#fff"/>
      <path id="Path_58" data-name="Path 58" d="M272.516,431.81l.163.5h.527l-.426.31.163.5-.426-.31-.426.31.163-.5-.426-.31h.527Z" transform="translate(-256.496 -421.598)" fill="#fff"/>
      <rect id="Rectangle_4" data-name="Rectangle 4" width="19.729" height="1.794" transform="translate(17.432)" fill="#d81228"/>
      <rect id="Rectangle_5" data-name="Rectangle 5" width="19.729" height="1.794" transform="translate(17.432 3.571)" fill="#d81228"/>
      <rect id="Rectangle_6" data-name="Rectangle 6" width="19.729" height="1.794" transform="translate(17.432 7.074)" fill="#d81228"/>
      <rect id="Rectangle_7" data-name="Rectangle 7" width="19.729" height="1.794" transform="translate(17.432 10.57)" fill="#d81228"/>
      <rect id="Rectangle_8" data-name="Rectangle 8" width="37.162" height="1.794" transform="translate(0 14.065)" fill="#d81228"/>
      <rect id="Rectangle_9" data-name="Rectangle 9" width="37.162" height="1.794" transform="translate(0 17.609)" fill="#d81228"/>
      <rect id="Rectangle_10" data-name="Rectangle 10" width="37.162" height="1.794" transform="translate(-0.454 21.153)" fill="#d81228"/>
    </g>
  </g>
</svg>
