<?xml version="1.0" encoding="utf-8"?>
<!-- Generator: Adobe Illustrator 16.0.0, SVG Export Plug-In . SVG Version: 6.00 Build 0)  -->
<!DOCTYPE svg PUBLIC "-//W3C//DTD SVG 1.1//EN" "http://www.w3.org/Graphics/SVG/1.1/DTD/svg11.dtd">
<svg version="1.1" id="Layer_1" xmlns="http://www.w3.org/2000/svg" xmlns:xlink="http://www.w3.org/1999/xlink" x="0px" y="0px"
	 width="157.5px" height="71.833px" viewBox="0 0 157.5 71.833" enable-background="new 0 0 157.5 71.833" xml:space="preserve">
<g>
	<g>
		<polygon fill="#E3BA65" points="89.578,9.72 58.925,9.72 58.925,3.913 64.637,3.913 64.637,7.816 67.017,7.816 67.017,1.533 
			56.45,1.533 56.45,12.004 89.578,12.004 		"/>
		<polygon fill="#E3BA65" points="58.925,37.993 62.828,37.993 62.828,35.612 56.45,35.612 56.45,46.083 67.017,46.083 
			67.017,13.813 64.637,13.813 64.637,43.704 58.925,43.704 		"/>
		<polygon fill="#E3BA65" points="99.478,9.72 95.575,9.72 95.575,12.004 101.857,12.004 101.857,1.533 91.386,1.533 91.386,33.899 
			93.766,33.899 93.766,3.913 99.478,3.913 		"/>
		<polygon fill="#E3BA65" points="99.478,13.623 99.478,33.899 101.857,33.899 101.857,13.623 		"/>
		<polygon fill="#E3BA65" points="56.45,13.623 56.45,33.899 58.735,33.899 58.735,13.623 		"/>
		<polygon fill="#E3BA65" points="89.387,1.628 69.111,1.628 69.111,4.008 89.292,4.008 		"/>
		<polygon fill="#E3BA65" points="89.387,43.608 69.111,43.608 69.111,45.989 89.292,45.989 		"/>
		<polygon fill="#E3BA65" points="68.825,37.993 99.478,37.993 99.478,43.704 93.766,43.704 93.766,39.801 91.386,39.801 
			91.386,46.083 101.857,46.083 101.857,35.612 68.825,35.612 		"/>
	</g>
	<polygon fill="#E3BA65" points="86.626,23.237 78.916,23.237 78.916,24.76 81.295,24.76 81.295,29.425 77.012,29.425 
		77.012,18.287 81.201,18.287 81.201,20.096 86.626,20.096 86.626,16.669 71.776,16.669 71.776,30.853 86.626,30.853 	"/>
</g>
<g>
	<path fill="#E3BA65" d="M11.043,63.694h5.902v5.426c-0.476,0.286-0.857,0.477-1.333,0.667c-0.476,0.19-0.952,0.38-1.428,0.571
		c-0.476,0.189-1.047,0.285-1.713,0.381c-0.571,0.095-1.333,0.095-2.094,0.095c-1.237,0-2.285-0.19-3.332-0.476
		C5.998,69.977,5.142,69.5,4.38,68.93c-0.762-0.667-1.333-1.333-1.713-2.285C2.286,65.788,2,64.836,2,63.694s0.19-2.189,0.667-3.046
		c0.381-0.952,0.952-1.714,1.713-2.38s1.618-1.143,2.666-1.523c1.047-0.381,2.094-0.57,3.332-0.57c0.762,0,1.428,0.095,2.094,0.285
		c0.667,0.19,1.238,0.477,1.809,0.762c0.571,0.285,1.047,0.666,1.523,1.143c0.476,0.381,0.856,0.856,1.142,1.236l-1.428,1.334
		c-0.286-0.381-0.571-0.857-0.952-1.143c-0.286-0.381-0.667-0.666-1.047-0.952c-0.381-0.286-0.762-0.476-1.143-0.667
		c-0.381-0.189-0.856-0.189-1.333-0.189c-0.762,0-1.428,0.095-1.999,0.381c-0.667,0.285-1.143,0.666-1.618,1.142
		c-0.476,0.476-0.857,1.143-1.047,1.81c-0.286,0.761-0.381,1.522-0.381,2.475c0,0.951,0.095,1.713,0.381,2.475
		c0.286,0.666,0.667,1.333,1.143,1.809c0.476,0.477,1.047,0.857,1.713,1.047c0.666,0.286,1.333,0.381,2.094,0.381
		c0.476,0,0.856-0.095,1.237-0.189c0.381-0.096,0.762-0.286,1.047-0.572v-3.712h-2.38v-1.333H11.043L11.043,63.694z"/>
	<path fill="#E3BA65" d="M21.61,56.459h3.427v9.043c0,0.571,0.095,1.047,0.286,1.523s0.381,0.856,0.762,1.237
		c0.286,0.381,0.666,0.667,1.142,0.856c0.476,0.191,0.952,0.286,1.523,0.286c0.571,0,1.047-0.095,1.523-0.286
		c0.476-0.189,0.856-0.476,1.142-0.856s0.571-0.761,0.762-1.237s0.286-0.952,0.286-1.523v-9.043h2.189v9.043
		c0,0.762-0.095,1.428-0.381,2.095c-0.286,0.666-0.667,1.237-1.143,1.714c-0.571,0.476-1.237,0.855-1.999,1.142
		c-0.856,0.286-1.809,0.381-2.951,0.381c-1.047,0-1.999-0.095-2.761-0.381s-1.428-0.666-1.999-1.142
		c-0.571-0.477-0.952-1.048-1.237-1.714c-0.286-0.667-0.381-1.333-0.381-2.095v-9.043H21.61z"/>
	<path fill="#E3BA65" d="M39.125,56.459h3.427v12.66h7.234v1.428H39.125V56.459z"/>
	<path fill="#E3BA65" d="M63.304,56.459v1.237h-6.664v4.665h5.902v1.237h-5.902v7.044h-3.427V56.459H63.304z"/>
	<path fill="#E3BA65" d="M71.396,70.739V58.078h-3.903v-1.714h9.329v1.714h-3.903v12.661H71.396z"/>
	<path fill="#E3BA65" d="M80.154,70.739V56.364h5.235c1.047,0,1.903,0.096,2.38,0.381c0.476,0.286,0.951,0.666,1.237,1.333
		s0.476,1.333,0.476,2.189c0,1.048-0.285,1.999-0.856,2.665c-0.571,0.667-1.428,1.143-2.476,1.238
		c0.477,0.285,0.762,0.57,0.953,0.762c0.475,0.57,0.855,1.142,1.236,1.809l2.095,3.902h-1.999l-1.523-2.951
		c-0.57-1.143-1.047-1.999-1.332-2.379c-0.285-0.381-0.571-0.667-0.857-0.857c-0.285-0.096-0.666-0.19-1.237-0.19h-1.809v6.378
		L80.154,70.739L80.154,70.739z M81.676,62.647h3.332c0.761,0,1.333-0.096,1.618-0.285c0.381-0.191,0.666-0.477,0.857-0.857
		c0.189-0.381,0.285-0.856,0.285-1.332c0-0.762-0.191-1.333-0.666-1.714c-0.381-0.381-1.048-0.667-1.904-0.667h-3.713v4.855H81.676
		L81.676,62.647z"/>
	<path fill="#E3BA65" d="M93.195,70.739l4.569-14.375h1.618l4.856,14.375h-1.811l-1.332-4.379h-4.95l-1.238,4.379H93.195z
		 M96.527,64.836h3.999l-1.239-3.998c-0.381-1.238-0.666-2.189-0.856-2.951c-0.19,0.952-0.381,1.809-0.666,2.761L96.527,64.836z"/>
	<path fill="#E3BA65" d="M107.283,70.739V56.364h4.094c1.047,0,1.809,0.096,2.285,0.286c0.666,0.19,1.236,0.666,1.809,1.237
		c0.475,0.571,0.855,1.333,1.143,2.285c0.285,0.951,0.379,1.998,0.379,3.331c0,1.618-0.285,3.046-0.76,4.094
		c-0.477,1.142-1.049,1.903-1.809,2.38c-0.762,0.476-1.715,0.666-2.951,0.666L107.283,70.739L107.283,70.739z M108.807,69.025h2.475
		c1.047,0,1.809-0.19,2.285-0.476c0.477-0.286,0.951-0.857,1.238-1.619c0.379-0.951,0.57-2.094,0.57-3.521s-0.191-2.57-0.57-3.428
		c-0.381-0.855-0.857-1.428-1.523-1.713c-0.381-0.19-1.047-0.285-2-0.285h-2.475V69.025L108.807,69.025z"/>
	<path fill="#E3BA65" d="M120.992,70.739V56.364h8.471v1.714h-6.949v4.379h6.475v1.714h-6.475v4.854h7.234v1.714H120.992z"/>
	<path fill="#E3BA65" d="M133.367,70.739V56.364h5.234c1.047,0,1.904,0.096,2.381,0.381c0.475,0.286,0.951,0.666,1.236,1.333
		c0.381,0.667,0.477,1.333,0.477,2.189c0,1.048-0.285,1.999-0.857,2.665c-0.57,0.667-1.428,1.143-2.475,1.238
		c0.477,0.285,0.762,0.57,0.951,0.762c0.477,0.57,0.857,1.142,1.238,1.809l2.094,3.902h-1.998l-1.523-2.951
		c-0.57-1.143-1.047-1.999-1.332-2.379c-0.287-0.381-0.572-0.667-0.857-0.857c-0.285-0.096-0.666-0.19-1.238-0.19h-1.809v6.378
		L133.367,70.739L133.367,70.739z M134.889,62.647h3.332c0.762,0,1.334-0.096,1.619-0.285c0.381-0.191,0.666-0.477,0.855-0.857
		c0.191-0.381,0.287-0.856,0.287-1.332c0-0.762-0.191-1.333-0.668-1.714c-0.379-0.381-1.047-0.667-1.902-0.667h-3.713v4.855H134.889
		L134.889,62.647z"/>
	<g>
		<path fill="#E3BA65" d="M150.977,64.265c-1.617-0.476-2.76-1.047-3.521-1.714c-0.762-0.666-1.143-1.522-1.143-2.475
			c0-1.143,0.477-1.999,1.332-2.761c0.857-0.761,2.096-1.047,3.523-1.047c0.951,0,1.809,0.19,2.57,0.571s1.332,0.856,1.809,1.523
			c0.381,0.666,0.666,1.332,0.666,2.189h-1.904c0-0.857-0.285-1.523-0.857-2c-0.57-0.476-1.332-0.762-2.283-0.762
			c-0.953,0-1.619,0.191-2.189,0.572c-0.477,0.381-0.762,0.951-0.762,1.713c0,0.571,0.285,1.047,0.762,1.428
			c0.475,0.381,1.332,0.762,2.475,1.047c1.143,0.286,2.094,0.667,2.76,1.048c0.666,0.38,1.143,0.856,1.523,1.428
			c0.285,0.571,0.477,1.142,0.477,1.903c0,1.143-0.477,2-1.332,2.762c-0.857,0.666-2.096,1.047-3.619,1.047
			c-0.951,0-1.902-0.191-2.76-0.572c-0.857-0.38-1.523-0.855-2-1.522c-0.475-0.667-0.666-1.333-0.666-2.189h1.904
			c0,0.856,0.285,1.522,0.951,1.999c0.668,0.477,1.523,0.762,2.57,0.762c0.953,0,1.715-0.19,2.285-0.571
			c0.572-0.381,0.762-0.952,0.762-1.618s-0.285-1.238-0.762-1.618C153.166,64.932,152.311,64.551,150.977,64.265z"/>
	</g>
</g>
</svg>
